<?xml version="1.0" encoding="utf-8"?>
<svg xmlns="http://www.w3.org/2000/svg" xmlns:svg="http://www.w3.org/2000/svg" version="1.1" viewBox="0 0 1400 440">
	<title>The titlepage for the Standard Ebooks edition of The Club of Queer Trades, by G. K. Chesterton</title>
	<g aria-label="THE CLUB">
		<path d="m 453.625,68.245613 h 18.33918 V 130 h 17.59064 V 68.245613 H 507.894 V 52.807016 h -54.269 z"/>
		<path d="m 536.81944,99.029239 h 24.88889 V 130 h 17.59064 V 52.807016 H 561.70833 V 83.590642 H 536.81944 V 52.807016 H 519.2288 V 130 h 17.59064 z"/>
		<path d="M 639.66448,52.807016 H 595.50073 V 130 h 44.16375 v -15.4386 h -26.5731 V 99.029239 h 25.45029 V 83.590642 H 613.09138 V 68.245613 h 26.5731 z"/>
		<path d="m 723.51389,114.09357 c -17.68421,0 -25.45029,-12.35088 -25.45029,-22.736846 0,-10.292397 7.76608,-22.643275 25.45029,-22.643275 8.98246,0 15.15789,4.77193 15.15789,4.77193 l 7.48538,-14.97076 c 0,0 -8.60818,-7.111112 -25.35672,-7.111112 -21.89474,0 -41.82456,17.964913 -41.82456,40.140352 0,22.081871 20.02339,39.859651 41.82456,39.859651 16.74854,0 25.35672,-7.11111 25.35672,-7.11111 l -7.48538,-14.97076 c 0,0 -6.17543,4.77193 -15.15789,4.77193 z"/>
		<path d="M 775.56945,52.807016 H 757.9788 V 130 h 44.16375 v -15.4386 h -26.5731 z"/>
		<path d="m 875.11477,52.807016 h -17.59064 v 44.63158 c 0,12.912284 -3.92982,16.654974 -12.53801,16.654974 -8.60819,0 -12.53801,-3.74269 -12.53801,-16.654974 v -44.63158 h -17.59065 v 49.777774 c 0,19.08772 10.47954,28.81872 30.12866,28.81872 19.64912,0 30.12865,-9.731 30.12865,-28.81872 z"/>
		<path d="M 890.42033,52.807016 V 130 h 29.28655 c 16,0 25.26316,-8.79532 25.26316,-21.52047 0,-12.444443 -6.83041,-17.777776 -16.46783,-19.461987 6.5497,-3.368421 9.63742,-9.450292 9.63742,-16.561404 0,-14.690058 -10.47953,-19.649123 -23.76608,-19.649123 z m 17.59065,30.222223 V 66.374268 h 1.40351 c 7.67251,0 11.6959,2.339181 11.6959,7.859649 0,6.456141 -4.11696,8.795322 -11.6959,8.795322 z m 0,33.403511 V 98.187134 h 5.52046 c 8.32749,0 12.91229,2.526316 12.91229,9.637426 0,6.08187 -4.5848,8.60819 -12.91229,8.60819 z"/>
	</g>
	<g aria-label="OF QUEER TRADES">
		<path d="m 221.9766,191.35672 c 0,22.54971 16.09357,40.04679 38.92398,40.04679 22.17544,0 38.83041,-17.49708 38.83041,-40.04679 0,-22.5497 -17.40351,-39.95321 -38.83041,-39.95321 -21.23977,0 -38.92398,17.40351 -38.92398,39.95321 z m 18.99415,0 c 0,-11.50877 6.36258,-23.01754 19.92983,-23.01754 13.66082,0 19.83626,11.50877 19.83626,23.01754 0,11.50878 -5.80117,23.01755 -19.83626,23.01755 -14.40936,0 -19.92983,-11.50877 -19.92983,-23.01755 z"/>
		<path d="M 357.12426,152.80702 H 312.49268 V 230 h 17.59064 v -30.97076 h 24.98246 v -15.4386 h -24.98246 v -15.34503 h 27.04094 z"/>
		<path d="m 419.88158,246.18713 c 0,0 4.11696,-4.30409 11.4152,-4.30409 11.88304,0 16.65497,7.29825 28.16375,7.29825 12.25731,0 17.21637,-10.47954 17.21637,-10.47954 l -5.52047,-11.88304 c 0,0 -3.64912,5.05264 -11.60234,5.05264 -4.58479,0 -10.19883,-1.77778 -11.97661,-1.77778 v -0.37427 c 16,-4.8655 26.85381,-19.92983 26.85381,-38.36258 0,-22.5497 -16.93568,-39.95321 -38.36258,-39.95321 -21.23976,0 -38.45614,17.40351 -38.45614,39.95321 0,19.83626 12.07018,35.7427 30.40936,39.29825 v 0.37427 c -5.61404,0 -12.35088,8.79532 -12.35088,8.79532 z m -3.27486,-54.83041 c 0,-11.50877 5.89474,-22.269 19.46199,-22.269 13.66082,0 19.36842,10.76023 19.36842,22.269 0,11.50878 -5.33333,22.26901 -19.36842,22.26901 -14.40935,0 -19.46199,-10.76023 -19.46199,-22.26901 z"/>
		<path d="m 546.53653,152.80702 h -17.59064 v 44.63158 c 0,12.91228 -3.92982,16.65497 -12.53801,16.65497 -8.60819,0 -12.53801,-3.74269 -12.53801,-16.65497 v -44.63158 h -17.59065 v 49.77777 c 0,19.08772 10.47953,28.81872 30.12866,28.81872 19.64912,0 30.12865,-9.731 30.12865,-28.81872 z"/>
		<path d="M 606.00584,152.80702 H 561.84209 V 230 h 44.16375 v -15.4386 h -26.5731 v -15.53216 h 25.45029 v -15.4386 h -25.45029 v -15.34503 h 26.5731 z"/>
		<path d="M 665.28217,152.80702 H 621.11843 V 230 h 44.16374 v -15.4386 h -26.5731 v -15.53216 h 25.4503 v -15.4386 h -25.4503 v -15.34503 h 26.5731 z"/>
		<path d="M 680.39473,152.80702 V 230 h 17.59065 V 199.49708 L 721.56433,230 h 22.36257 l -26.5731,-31.90643 c 9.45029,-2.99416 15.81287,-10.76024 15.81287,-22.36258 0,-15.15789 -10.85381,-22.92397 -25.1696,-22.92397 z m 17.59065,34.24561 V 166.8421 h 2.05848 c 6.64327,0 14.59649,0.46784 14.59649,10.10527 0,9.63742 -7.95322,10.10526 -14.59649,10.10526 z"/>
		<path d="m 773.61405,168.24561 h 18.33918 V 230 h 17.59064 v -61.75439 h 18.33918 v -15.43859 h -54.269 z"/>
		<path d="M 839.21782,152.80702 V 230 h 17.59065 V 199.49708 L 880.38742,230 h 22.36257 l -26.5731,-31.90643 c 9.45029,-2.99416 15.81287,-10.76024 15.81287,-22.36258 0,-15.15789 -10.85381,-22.92397 -25.1696,-22.92397 z m 17.59065,34.24561 V 166.8421 h 2.05848 c 6.64327,0 14.59649,0.46784 14.59649,10.10527 0,9.63742 -7.95322,10.10526 -14.59649,10.10526 z"/>
		<path d="m 950.49123,152.80702 h -16.2807 L 903.05263,230 h 18.90059 l 5.7076,-15.4386 h 29.38012 L 962.74854,230 h 18.90058 z m 0.5614,46.31579 h -17.40351 l 8.60819,-22.45614 h 0.18714 z"/>
		<path d="M 989.56872,152.80702 V 230 h 22.36258 c 21.2398,0 38.924,-16.09357 38.924,-38.64328 0,-22.45614 -17.7778,-38.5497 -38.924,-38.5497 z m 17.59068,61.47368 v -45.75439 h 2.7134 c 13.0994,0 21.9883,10.0117 21.9883,22.92398 -0.094,12.91228 -8.9824,22.83041 -21.9883,22.83041 z"/>
		<path d="m 1107.8114,152.80702 h -44.1637 V 230 h 44.1637 v -15.4386 h -26.5731 v -15.53216 h 25.4503 v -15.4386 h -25.4503 v -15.34503 h 26.5731 z"/>
		<path d="m 1151.3684,151.40351 c -12.4444,0 -25.1695,9.16959 -25.1695,23.57895 0,8.04678 5.4269,15.25146 14.69,19.83625 9.1696,4.5848 17.4035,7.11111 17.4035,12.72515 0,7.20468 -7.2982,7.57895 -11.1345,7.57895 -8.6082,0 -18.9006,-8.70176 -18.9006,-8.70176 l -8.7953,14.78363 c 0,0 10.9474,10.19883 29.0059,10.19883 15.0643,0 29.0994,-6.45614 29.0994,-24.88889 0,-10.10526 -9.4503,-17.40351 -18.0585,-21.05263 -8.7953,-3.74269 -16.0936,-6.83041 -16.0936,-11.13451 0,-4.21052 3.1813,-6.92397 9.1696,-6.92397 7.9532,0 15.6258,5.33333 15.6258,5.33333 l 7.1111,-14.03509 c 0,0 -9.9182,-7.29824 -23.9533,-7.29824 z"/>
	</g>
	<g aria-label="G. K. CHESTERTON">
		<path d="m 379.7659,357.57895 h -26.73684 v 10.17544 h 13.33333 c 0,7.08772 -6.24561,11.15789 -12.5614,11.15789 -8.14035,0 -14.73684,-8 -14.73684,-17.82456 0,-10.03509 6.59649,-18.10526 14.73684,-18.10526 5.12281,0 9.54386,2.03508 12.91228,7.43859 l 8.63158,-9.47368 c -5.05263,-6.10526 -12.14035,-9.89474 -22.31579,-9.89474 -16.2807,0 -28.21053,13.40351 -28.21053,30.03509 0,16.5614 12.63158,29.96491 28.21053,29.96491 11.36842,0 23.57895,-6.24561 26.73684,-20.91228 z"/>
		<path d="m 398.52906,374.98246 c -4.42105,0 -8,3.57894 -8,8.07017 0,4.42105 3.57895,8 8,8 4.49123,0 8.07017,-3.57895 8.07017,-8 0,-4.49123 -3.57894,-8.07017 -8.07017,-8.07017 z"/>
		<path d="m 496.9534,390 -26.94737,-30.45614 23.29825,-27.4386 h -16 l -19.85965,23.64913 V 332.10526 H 444.25165 V 390 h 13.19298 V 365.4386 L 478.77796,390 Z"/>
		<path d="m 512.48738,374.98246 c -4.42105,0 -8,3.57894 -8,8.07017 0,4.42105 3.57895,8 8,8 4.49123,0 8.07018,-3.57895 8.07018,-8 0,-4.49123 -3.57895,-8.07017 -8.07018,-8.07017 z"/>
		<path d="m 586.82402,378.07018 c -13.26316,0 -19.08772,-9.26316 -19.08772,-17.05264 0,-7.71929 5.82456,-16.98245 19.08772,-16.98245 6.73684,0 11.36842,3.57895 11.36842,3.57895 l 5.61403,-11.22807 c 0,0 -6.45614,-5.33334 -19.01754,-5.33334 -16.42105,0 -31.36842,13.47369 -31.36842,30.10527 0,16.5614 15.01754,29.89473 31.36842,29.89473 12.5614,0 19.01754,-5.33333 19.01754,-5.33333 l -5.61403,-11.22807 c 0,0 -4.63158,3.57895 -11.36842,3.57895 z"/>
		<path d="m 627.11567,366.77193 h 18.66666 V 390 h 13.19299 v -57.89474 h -13.19299 v 23.08772 H 627.11567 V 332.10526 H 613.92269 V 390 h 13.19298 z"/>
		<path d="M 705.49944,332.10526 H 672.37663 V 390 h 33.12281 v -11.57895 h -19.92982 v -11.64912 h 19.08772 v -11.57895 h -19.08772 v -11.50877 h 19.92982 z"/>
		<path d="m 739.41721,331.05263 c -9.33333,0 -18.87719,6.8772 -18.87719,17.68421 0,6.03509 4.07017,11.4386 11.01754,14.8772 6.8772,3.43859 13.05263,5.33333 13.05263,9.54385 0,5.40351 -5.47368,5.68422 -8.35087,5.68422 -6.45614,0 -14.17544,-6.52632 -14.17544,-6.52632 l -6.59649,11.08772 c 0,0 8.21052,7.64912 21.75438,7.64912 11.29825,0 21.82456,-4.8421 21.82456,-18.66666 0,-7.57895 -7.08771,-13.05264 -13.54385,-15.78948 -6.5965,-2.80702 -12.07018,-5.12281 -12.07018,-8.35088 0,-3.15789 2.38596,-5.19298 6.87719,-5.19298 5.96491,0 11.7193,4 11.7193,4 l 5.33333,-10.52631 c 0,0 -7.43859,-5.47369 -17.96491,-5.47369 z"/>
		<path d="m 763.15735,343.68421 h 13.75439 V 390 h 13.19298 v -46.31579 h 13.75439 v -11.57895 h -40.70176 z"/>
		<path d="m 846.73299,332.10526 h -33.1228 V 390 h 33.1228 v -11.57895 h -19.92982 v -11.64912 h 19.08772 v -11.57895 h -19.08772 v -11.50877 h 19.92982 z"/>
		<path d="M 859.31743,332.10526 V 390 h 13.19298 V 367.12281 L 890.19462,390 h 16.77193 l -19.92982,-23.92982 c 7.08772,-2.24562 11.85965,-8.07018 11.85965,-16.77193 0,-11.36842 -8.14035,-17.19299 -18.8772,-17.19299 z m 13.19298,25.68421 v -15.15789 h 1.54386 c 4.98246,0 10.94737,0.35088 10.94737,7.57895 0,7.22807 -5.96491,7.57894 -10.94737,7.57894 z"/>
		<path d="M 908.22861,343.68421 H 921.983 V 390 h 13.19298 v -46.31579 h 13.75438 v -11.57895 h -40.70175 z"/>
		<path d="m 953.89196,361.01754 c 0,16.91228 12.07017,30.03509 29.19298,30.03509 16.63158,0 29.12276,-13.12281 29.12276,-30.03509 0,-16.91228 -13.05258,-29.96491 -29.12276,-29.96491 -15.92982,0 -29.19298,13.05263 -29.19298,29.96491 z m 14.24561,0 c 0,-8.63157 4.77193,-17.26315 14.94737,-17.26315 10.24562,0 14.87719,8.63158 14.87719,17.26315 0,8.63158 -4.35087,17.26316 -14.87719,17.26316 -10.80702,0 -14.94737,-8.63158 -14.94737,-17.26316 z"/>
		<path d="m 1036.222,354.07018 h 0.1404 L 1059.3799,390 h 13.193 v -57.89474 h -13.193 v 35.92983 h -0.1403 l -23.0176,-35.92983 h -13.193 V 390 h 13.193 z"/>
	</g>
</svg>
